# Blender 3.3.1
# www.blender.org
mtllib 1.mtl
o Curve.008_Curve.020
v -0.052003 0.587309 -0.249778
v 0.122215 0.608083 -0.249778
v 0.191225 0.029351 -0.202885
v 0.423514 0.057050 -0.202885
v 0.354504 0.635782 -0.249778
v 0.094611 0.839576 -0.268536
v -0.079607 0.818802 -0.268536
v -0.049816 0.568974 -0.479284
v 0.124401 0.589748 -0.479284
v 0.193411 0.011015 -0.432390
v 0.425701 0.038714 -0.432390
v 0.356691 0.617447 -0.479284
v 0.096798 0.821240 -0.498041
v -0.077420 0.800466 -0.498041
vn -0.0095 0.0796 0.9968
vn 0.1180 -0.9898 0.0802
vn 0.0095 -0.0796 -0.9968
vn -0.1180 0.9898 -0.0802
vn -0.9930 -0.1184 -0.0000
vn 0.6186 0.7837 -0.0567
vn 0.9930 0.1184 -0.0000
vt 0.142857 0.000000
vt 0.285714 0.000000
vt 0.428571 0.000000
vt 0.571429 0.000000
vt 0.714286 0.000000
vt 0.857143 0.000000
vt 1.000000 0.000000
vt 0.142857 0.000000
vt 0.285714 0.000000
vt 0.428571 0.000000
vt 0.571429 0.000000
vt 0.714286 0.000000
vt 0.857143 0.000000
vt 1.000000 0.000000
s 0
usemtl æè´¨
f 1/1/1 6/6/1 7/7/1
f 1/1/1 5/5/1 6/6/1
f 2/2/2 5/5/2 1/1/2
f 3/3/1 5/5/1 2/2/1
f 3/3/1 4/4/1 5/5/1
f 8/8/3 14/14/3 13/13/3
f 8/8/3 13/13/3 12/12/3
f 9/9/4 8/8/4 12/12/4
f 10/10/3 9/9/3 12/12/3
f 10/10/3 12/12/3 11/11/3
f 1/1/5 7/7/5 14/14/5 8/8/5
f 7/7/4 6/6/4 13/13/4 14/14/4
f 6/6/6 5/5/6 12/12/6 13/13/6
f 2/2/2 1/1/2 8/8/2 9/9/2
f 3/3/5 2/2/5 9/9/5 10/10/5
f 4/4/2 3/3/2 10/10/2 11/11/2
f 5/5/7 4/4/7 11/11/7 12/12/7
