# Blender 3.3.1
# www.blender.org
mtllib 3.mtl
o Curve.010_Curve.022
v 0.487881 0.233096 -0.170148
v 0.487881 0.233096 0.060329
v 0.897268 0.233096 0.060329
v 0.897268 0.233096 -0.170148
v 0.897268 0.291568 0.060329
v 0.897268 0.291568 -0.170148
v 0.604848 0.291568 0.060329
v 0.604848 0.291568 -0.170148
v 0.604848 0.466982 0.060329
v 0.604848 0.466982 -0.170148
v 0.897268 0.466982 0.060329
v 0.897268 0.466982 -0.170148
v 0.897268 0.583925 0.060329
v 0.897268 0.583925 -0.170148
v 0.487881 0.583925 0.060329
v 0.487881 0.583925 -0.170148
v 0.487881 0.817812 0.060329
v 0.487881 0.817812 -0.170148
v 0.897268 0.817812 0.060329
v 0.897268 0.817812 -0.170148
v 1.101962 0.613161 -0.170148
v 1.101962 0.613161 0.060329
v 1.101962 0.233096 -0.170148
v 1.101962 0.233096 0.060329
v 0.838784 -0.000790 -0.170148
v 0.838784 -0.000790 0.060329
v 0.487881 -0.000790 -0.170148
v 0.487881 -0.000790 0.060329
vn -1.0000 -0.0000 -0.0000
vn -0.0000 -1.0000 -0.0000
vn 0.6643 -0.7475 -0.0000
vn -0.0000 1.0000 -0.0000
vn 1.0000 -0.0000 -0.0000
vn 0.7070 0.7072 -0.0000
vn -0.0000 -0.0000 -1.0000
vn -0.0000 -0.0000 1.0000
vt 0.071429 0.000000
vt 0.071429 0.000000
vt 0.142857 0.000000
vt 0.142857 0.000000
vt 0.214286 0.000000
vt 0.214286 0.000000
vt 0.285714 0.000000
vt 0.285714 0.000000
vt 0.357143 0.000000
vt 0.357143 0.000000
vt 0.428571 0.000000
vt 0.428571 0.000000
vt 0.500000 0.000000
vt 0.500000 0.000000
vt 0.571429 0.000000
vt 0.571429 0.000000
vt 0.642857 0.000000
vt 0.642857 0.000000
vt 0.714286 0.000000
vt 0.714286 0.000000
vt 0.785714 0.000000
vt 0.785714 0.000000
vt 0.857143 0.000000
vt 0.857143 0.000000
vt 0.928571 0.000000
vt 0.928571 0.000000
vt 1.000000 0.000000
vt 1.000000 0.000000
s 0
usemtl æè´¨.002
f 1/1/1 27/27/1 28/28/1 2/2/1
f 26/26/2 28/28/2 27/27/2 25/25/2
f 24/24/3 26/26/3 25/25/3 23/23/3
f 2/2/4 3/3/4 4/4/4 1/1/4
f 3/3/1 5/5/1 6/6/1 4/4/1
f 22/22/5 24/24/5 23/23/5 21/21/5
f 7/7/1 9/9/1 10/10/1 8/8/1
f 5/5/2 7/7/2 8/8/2 6/6/2
f 9/9/4 11/11/4 12/12/4 10/10/4
f 11/11/1 13/13/1 14/14/1 12/12/1
f 15/15/1 17/17/1 18/18/1 16/16/1
f 13/13/2 15/15/2 16/16/2 14/14/2
f 17/17/4 19/19/4 20/20/4 18/18/4
f 19/19/6 22/22/6 21/21/6 20/20/6
f 27/27/7 1/1/7 25/25/7
f 28/28/8 26/26/8 2/2/8
f 25/25/7 1/1/7 23/23/7
f 26/26/8 24/24/8 2/2/8
f 1/1/2 4/4/2 23/23/2
f 2/2/4 24/24/4 3/3/4
f 4/4/7 6/6/7 23/23/7
f 3/3/8 24/24/8 5/5/8
f 23/23/7 6/6/7 21/21/7
f 24/24/8 22/22/8 5/5/8
f 8/8/7 10/10/7 6/6/7
f 7/7/8 5/5/8 9/9/8
f 6/6/7 10/10/7 12/12/7
f 5/5/8 11/11/8 9/9/8
f 6/6/7 12/12/7 21/21/7
f 5/5/8 22/22/8 11/11/8
f 12/12/7 14/14/7 21/21/7
f 11/11/8 22/22/8 13/13/8
f 16/16/7 18/18/7 14/14/7
f 15/15/8 13/13/8 17/17/8
f 14/14/7 18/18/7 21/21/7
f 13/13/8 22/22/8 17/17/8
f 21/21/7 18/18/7 20/20/7
f 22/22/8 19/19/8 17/17/8
