# Blender 3.3.1
# www.blender.org
mtllib 6.mtl
o Curve.004_Curve.016
v 0.203237 0.466925 0.136818
v 0.203237 0.293392 0.111193
v -0.264634 0.293392 0.111193
v -0.264634 0.177703 0.094109
v 0.027785 0.177703 0.094109
v 0.203237 0.004170 0.068484
v 0.203237 -0.111518 0.051401
v 0.027785 -0.285051 0.025776
v -0.264634 -0.285051 0.025776
v -0.469328 -0.082596 0.055672
v -0.469328 0.293392 0.111193
v -0.264634 0.466925 0.136818
v 0.203237 0.500560 -0.090959
v 0.203237 0.327027 -0.116584
v -0.264634 0.327027 -0.116584
v -0.264634 0.211339 -0.133668
v 0.027785 0.211339 -0.133668
v 0.203237 0.037805 -0.159293
v 0.203237 -0.077883 -0.176376
v 0.027785 -0.251416 -0.202001
v -0.264634 -0.251416 -0.202001
v -0.469328 -0.048961 -0.172105
v -0.469328 0.327027 -0.116584
v -0.264634 0.500560 -0.090959
vn -0.0000 -0.1461 0.9893
vn -0.0000 -0.9893 -0.1461
vn -0.0000 0.1461 -0.9893
vn -0.0000 -0.9893 -0.1460
vn -0.6507 0.7512 0.1109
vn -0.0000 0.9893 0.1461
vn 1.0000 -0.0000 -0.0000
vn -1.0000 -0.0000 -0.0000
vn 0.7070 0.6996 0.1033
vn -0.7070 -0.6996 -0.1033
vn 0.7070 -0.6996 -0.1033
vt 0.083333 0.000000
vt 0.166667 0.000000
vt 0.250000 0.000000
vt 0.333333 0.000000
vt 0.416667 0.000000
vt 0.500000 0.000000
vt 0.583333 0.000000
vt 0.666667 0.000000
vt 0.750000 0.000000
vt 0.833333 0.000000
vt 0.916667 0.000000
vt 1.000000 0.000000
vt 0.083333 0.000000
vt 0.166667 0.000000
vt 0.250000 0.000000
vt 0.333333 0.000000
vt 0.416667 0.000000
vt 0.500000 0.000000
vt 0.583333 0.000000
vt 0.666667 0.000000
vt 0.750000 0.000000
vt 0.833333 0.000000
vt 0.916667 0.000000
vt 1.000000 0.000000
s 0
usemtl æè´¨.005
f 11/11/1 1/1/1 12/12/1
f 11/11/1 2/2/1 1/1/1
f 10/10/1 3/3/1 11/11/1
f 3/3/2 2/2/2 11/11/2
f 10/10/1 4/4/1 3/3/1
f 10/10/1 5/5/1 4/4/1
f 10/10/1 6/6/1 5/5/1
f 10/10/1 7/7/1 6/6/1
f 9/9/1 7/7/1 10/10/1
f 9/9/1 8/8/1 7/7/1
f 23/23/3 24/24/3 13/13/3
f 23/23/3 13/13/3 14/14/3
f 22/22/3 23/23/3 15/15/3
f 15/15/4 23/23/2 14/14/4
f 22/22/3 15/15/3 16/16/3
f 22/22/3 16/16/3 17/17/3
f 22/22/3 17/17/3 18/18/3
f 22/22/3 18/18/3 19/19/3
f 21/21/3 22/22/3 19/19/3
f 21/21/3 19/19/3 20/20/3
f 11/11/5 12/12/5 24/24/5 23/23/5
f 12/12/6 1/1/6 13/13/6 24/24/6
f 1/1/7 2/2/7 14/14/7 13/13/7
f 10/10/8 11/11/8 23/23/8 22/22/8
f 2/2/2 3/3/2 15/15/2 14/14/2
f 3/3/7 4/4/7 16/16/7 15/15/7
f 4/4/6 5/5/6 17/17/6 16/16/6
f 5/5/9 6/6/9 18/18/9 17/17/9
f 6/6/7 7/7/7 19/19/7 18/18/7
f 9/9/10 10/10/10 22/22/10 21/21/10
f 8/8/2 9/9/2 21/21/2 20/20/2
f 7/7/11 8/8/11 20/20/11 19/19/11
