# Blender 3.3.1
# www.blender.org
mtllib 8.mtl
o Curve.006_Curve.018
v -0.839478 0.881216 0.069668
v -0.634784 0.686804 0.133587
v -0.634784 0.603484 0.160982
v -0.766373 0.478505 0.202073
v -0.664026 0.381299 0.234032
v -0.664026 0.270206 0.270558
v -0.839478 0.103567 0.325346
v -1.131897 0.103567 0.325346
v -1.307349 0.270206 0.270558
v -1.307349 0.381299 0.234032
v -1.190381 0.492391 0.197507
v -1.307349 0.603484 0.160982
v -1.307349 0.714577 0.124456
v -1.131897 0.881216 0.069668
v -0.839478 0.809302 -0.149060
v -0.634784 0.614890 -0.085141
v -0.634784 0.531570 -0.057747
v -0.766373 0.406591 -0.016656
v -0.664026 0.309385 0.015304
v -0.664026 0.198292 0.051829
v -0.839478 0.031653 0.106618
v -1.131897 0.031653 0.106618
v -1.307349 0.198292 0.051829
v -1.307349 0.309385 0.015304
v -1.190381 0.420477 -0.021221
v -1.307349 0.531570 -0.057747
v -1.307349 0.642662 -0.094272
v -1.131897 0.809302 -0.149060
vn -0.0000 0.3123 0.9500
vn -0.0000 -0.3123 -0.9500
vn -0.7070 0.6718 -0.2209
vn -0.0000 0.9500 -0.3123
vn 0.7070 0.6718 -0.2209
vn -1.0000 -0.0000 -0.0000
vn 1.0000 -0.0000 -0.0000
vn -0.7070 -0.6718 0.2209
vn 0.7070 -0.6718 0.2209
vn -0.0000 -0.9500 0.3123
vt 0.071429 0.000000
vt 0.142857 0.000000
vt 0.214286 0.000000
vt 0.285714 0.000000
vt 0.357143 0.000000
vt 0.428571 0.000000
vt 0.500000 0.000000
vt 0.571429 0.000000
vt 0.642857 0.000000
vt 0.714286 0.000000
vt 0.785714 0.000000
vt 0.857143 0.000000
vt 0.928571 0.000000
vt 1.000000 0.000000
vt 0.071429 0.000000
vt 0.142857 0.000000
vt 0.214286 0.000000
vt 0.285714 0.000000
vt 0.357143 0.000000
vt 0.428571 0.000000
vt 0.500000 0.000000
vt 0.571429 0.000000
vt 0.642857 0.000000
vt 0.714286 0.000000
vt 0.785714 0.000000
vt 0.857143 0.000000
vt 0.928571 0.000000
vt 1.000000 0.000000
s 0
usemtl æè´¨.007
f 13/13/1 1/1/1 14/14/1
f 13/13/1 2/2/1 1/1/1
f 12/12/1 2/2/1 13/13/1
f 12/12/1 3/3/1 2/2/1
f 11/11/1 3/3/1 12/12/1
f 11/11/1 4/4/1 3/3/1
f 10/10/1 4/4/1 11/11/1
f 10/10/1 5/5/1 4/4/1
f 9/9/1 5/5/1 10/10/1
f 9/9/1 6/6/1 5/5/1
f 8/8/1 6/6/1 9/9/1
f 8/8/1 7/7/1 6/6/1
f 27/27/2 28/28/2 15/15/2
f 27/27/2 15/15/2 16/16/2
f 26/26/2 27/27/2 16/16/2
f 26/26/2 16/16/2 17/17/2
f 25/25/2 26/26/2 17/17/2
f 25/25/2 17/17/2 18/18/2
f 24/24/2 25/25/2 18/18/2
f 24/24/2 18/18/2 19/19/2
f 23/23/2 24/24/2 19/19/2
f 23/23/2 19/19/2 20/20/2
f 22/22/2 23/23/2 20/20/2
f 22/22/2 20/20/2 21/21/2
f 13/13/3 14/14/3 28/28/3 27/27/3
f 14/14/4 1/1/4 15/15/4 28/28/4
f 1/1/5 2/2/5 16/16/5 15/15/5
f 12/12/6 13/13/6 27/27/6 26/26/6
f 2/2/7 3/3/7 17/17/7 16/16/7
f 11/11/8 12/12/8 26/26/8 25/25/8
f 3/3/9 4/4/9 18/18/9 17/17/9
f 10/10/3 11/11/3 25/25/3 24/24/3
f 4/4/5 5/5/5 19/19/5 18/18/5
f 9/9/6 10/10/6 24/24/6 23/23/6
f 5/5/7 6/6/7 20/20/7 19/19/7
f 8/8/8 9/9/8 23/23/8 22/22/8
f 7/7/10 8/8/10 22/22/10 21/21/10
f 6/6/9 7/7/9 21/21/9 20/20/9
