# Blender 3.3.1
# www.blender.org
mtllib 9.mtl
o Curve.007_Curve.019
v 0.357860 0.290944 -0.488625
v 0.518851 0.094157 -0.626966
v 0.478529 -0.273960 -0.712491
v 0.259513 -0.487865 -0.662950
v -0.092841 -0.490621 -0.484963
v -0.069578 -0.278247 -0.435622
v 0.295826 -0.275389 -0.620201
v 0.302030 -0.218755 -0.607043
v 0.041026 -0.220797 -0.475201
v -0.119964 -0.024010 -0.336860
v -0.110658 0.060941 -0.317124
v 0.096857 0.288902 -0.356783
v 0.256952 0.348202 -0.687503
v 0.417943 0.151416 -0.825845
v 0.377620 -0.216701 -0.911369
v 0.158605 -0.430606 -0.861828
v -0.193746 -0.433364 -0.683836
v -0.170486 -0.220988 -0.634501
v 0.194918 -0.218130 -0.819080
v 0.201121 -0.161496 -0.805922
v -0.059883 -0.163538 -0.674079
v -0.220872 0.033249 -0.535739
v -0.211567 0.118199 -0.516002
v -0.004052 0.346161 -0.555661
vn 0.4383 -0.2487 0.8638
vn -0.4383 0.2487 -0.8638
vn -0.4383 0.2487 -0.8637
vn -0.6018 0.6326 0.4875
vn 0.1061 0.9686 0.2250
vn 0.7061 0.6899 -0.1596
vn 0.8926 0.0070 -0.4509
vn -0.8926 -0.0070 0.4509
vn -0.7061 -0.6899 0.1596
vn -0.1061 -0.9686 -0.2250
vn 0.5560 -0.6800 -0.4779
vt 0.083333 0.000000
vt 0.166667 0.000000
vt 0.250000 0.000000
vt 0.333333 0.000000
vt 0.416667 0.000000
vt 0.500000 0.000000
vt 0.583333 0.000000
vt 0.666667 0.000000
vt 0.750000 0.000000
vt 0.833333 0.000000
vt 0.916667 0.000000
vt 1.000000 0.000000
vt 0.083333 0.000000
vt 0.166667 0.000000
vt 0.250000 0.000000
vt 0.333333 0.000000
vt 0.416667 0.000000
vt 0.500000 0.000000
vt 0.583333 0.000000
vt 0.666667 0.000000
vt 0.750000 0.000000
vt 0.833333 0.000000
vt 0.916667 0.000000
vt 1.000000 0.000000
s 0
usemtl æè´¨.001
f 11/11/1 1/1/1 12/12/1
f 11/11/1 2/2/1 1/1/1
f 11/11/1 3/3/1 2/2/1
f 10/10/1 3/3/1 11/11/1
f 9/9/1 8/8/1 10/10/1
f 8/8/1 3/3/1 10/10/1
f 7/7/1 3/3/1 8/8/1
f 5/5/1 7/7/1 6/6/1
f 5/5/1 3/3/1 7/7/1
f 5/5/1 4/4/1 3/3/1
f 23/23/2 24/24/2 13/13/2
f 23/23/2 13/13/2 14/14/2
f 23/23/2 14/14/2 15/15/2
f 22/22/2 23/23/2 15/15/2
f 21/21/2 22/22/2 20/20/2
f 20/20/2 22/22/2 15/15/2
f 19/19/2 20/20/2 15/15/2
f 17/17/2 18/18/2 19/19/2
f 17/17/2 19/19/2 15/15/2
f 17/17/3 15/15/3 16/16/3
f 11/11/4 12/12/4 24/24/4 23/23/4
f 12/12/5 1/1/5 13/13/5 24/24/5
f 1/1/6 2/2/6 14/14/6 13/13/6
f 2/2/7 3/3/7 15/15/7 14/14/7
f 10/10/8 11/11/8 23/23/8 22/22/8
f 9/9/9 10/10/9 22/22/9 21/21/9
f 8/8/10 9/9/10 21/21/10 20/20/10
f 7/7/8 8/8/8 20/20/8 19/19/8
f 5/5/8 6/6/8 18/18/8 17/17/8
f 6/6/5 7/7/5 19/19/5 18/18/5
f 4/4/10 5/5/10 17/17/10 16/16/10
f 3/3/11 4/4/11 16/16/11 15/15/11
