# Blender 3.3.1
# www.blender.org
mtllib B.mtl
o B
v -0.314455 1.594340 -0.109283
v 0.405277 1.596733 -0.109283
v 0.403141 1.351445 -0.109283
v 0.254710 1.189913 -0.109283
v 0.407413 1.023596 -0.109283
v 0.407413 0.797452 -0.109283
v -0.313387 0.803435 -0.109283
v 0.035800 1.412468 -0.109283
v -0.166023 1.185127 -0.109283
v 0.042207 0.947018 -0.109283
v 0.108414 1.015220 -0.109283
v -0.030406 1.185127 -0.109283
v 0.103075 1.350248 -0.109283
v -0.314455 1.594340 -0.325802
v 0.405277 1.596733 -0.325802
v 0.403141 1.351445 -0.325802
v 0.254710 1.189913 -0.325802
v 0.407413 1.023596 -0.325802
v 0.407413 0.797452 -0.325802
v -0.313387 0.803435 -0.325802
v 0.035800 1.412468 -0.325802
v -0.166023 1.185127 -0.325802
v 0.042207 0.947018 -0.325802
v 0.108414 1.015220 -0.325802
v -0.030406 1.185127 -0.325802
v 0.103075 1.350248 -0.325802
vn -0.0000 -0.0000 1.0000
vn -0.0000 -0.0000 -1.0000
vn -0.0033 1.0000 -0.0000
vn 1.0000 -0.0087 -0.0000
vn -1.0000 -0.0014 -0.0000
vn 0.7478 -0.6639 -0.0000
vn -0.6790 -0.7342 -0.0000
vn 0.7363 -0.6766 -0.0000
vn -0.7777 0.6287 -0.0000
vn 0.7366 0.6763 -0.0000
vn 0.7528 0.6583 -0.0000
vn -0.7744 -0.6327 -0.0000
vn 1.0000 -0.0000 -0.0000
vn -0.7175 0.6965 -0.0000
vn -0.0083 -1.0000 -0.0000
vt 0.000000 0.000000
vt 0.083333 0.000000
vt 0.166667 0.000000
vt 0.250000 0.000000
vt 0.333333 0.000000
vt 0.416667 0.000000
vt 0.500000 0.000000
vt 0.583333 0.000000
vt 0.666667 0.000000
vt 0.750000 0.000000
vt 0.833333 0.000000
vt 0.916667 0.000000
vt 1.000000 0.000000
vt 0.000000 0.000000
vt 0.083333 0.000000
vt 0.166667 0.000000
vt 0.250000 0.000000
vt 0.333333 0.000000
vt 0.416667 0.000000
vt 0.500000 0.000000
vt 0.583333 0.000000
vt 0.666667 0.000000
vt 0.750000 0.000000
vt 0.833333 0.000000
vt 0.916667 0.000000
vt 1.000000 0.000000
s 0
usemtl Material
f 1/1/1 3/3/1 2/2/1
f 7/7/1 9/9/1 1/1/1
f 9/9/1 8/8/1 1/1/1
f 8/8/1 3/3/1 1/1/1
f 13/13/1 3/3/1 8/8/1
f 13/13/1 4/4/1 3/3/1
f 12/12/1 4/4/1 13/13/1
f 12/12/1 5/5/1 4/4/1
f 7/7/1 10/10/1 9/9/1
f 11/11/1 5/5/1 12/12/1
f 11/11/1 6/6/1 5/5/1
f 10/10/1 6/6/1 11/11/1
f 7/7/1 6/6/1 10/10/1
f 14/14/2 15/15/2 16/16/2
f 20/20/2 14/14/2 22/22/2
f 22/22/2 14/14/2 21/21/2
f 21/21/2 14/14/2 16/16/2
f 26/26/2 21/21/2 16/16/2
f 26/26/2 16/16/2 17/17/2
f 25/25/2 26/26/2 17/17/2
f 25/25/2 17/17/2 18/18/2
f 20/20/2 22/22/2 23/23/2
f 24/24/2 25/25/2 18/18/2
f 24/24/2 18/18/2 19/19/2
f 23/23/2 24/24/2 19/19/2
f 20/20/2 23/23/2 19/19/2
f 1/1/3 2/2/3 15/15/3 14/14/3
f 2/2/4 3/3/4 16/16/4 15/15/4
f 7/7/5 1/1/5 14/14/5 20/20/5
f 8/8/6 9/9/6 22/22/6 21/21/6
f 13/13/7 8/8/7 21/21/7 26/26/7
f 3/3/8 4/4/8 17/17/8 16/16/8
f 12/12/9 13/13/9 26/26/9 25/25/9
f 4/4/10 5/5/10 18/18/10 17/17/10
f 9/9/11 10/10/11 23/23/11 22/22/11
f 11/11/12 12/12/12 25/25/12 24/24/12
f 5/5/13 6/6/13 19/19/13 18/18/13
f 10/10/14 11/11/14 24/24/14 23/23/14
f 6/6/15 7/7/15 20/20/15 19/19/15
