# Blender 3.3.1
# www.blender.org
mtllib C.mtl
o C
v -1.253721 0.271578 -0.852391
v -0.761583 0.337892 -0.853676
v -1.058543 -0.100061 -0.766061
v -0.827826 -0.314275 -0.713132
v -0.517435 0.119440 -0.799462
v -0.449723 -0.423266 -0.679216
v -1.152146 -0.511868 -0.678702
v -1.248054 0.225430 -1.063860
v -0.755917 0.291744 -1.065144
v -1.052877 -0.146209 -0.977529
v -0.822159 -0.360423 -0.924600
v -0.511768 0.073292 -1.010931
v -0.444057 -0.469414 -0.890684
v -1.146480 -0.558015 -0.890170
vn -0.0262 0.2131 0.9767
vn 0.0262 -0.2131 -0.9767
vn -0.1310 0.9679 -0.2147
vn 0.8323 -0.5365 0.1394
vn -0.9917 -0.1283 0.0014
vn -0.8181 0.5569 -0.1435
vn 0.9923 0.1237 -0.0004
vn 0.6907 0.7102 -0.1365
vn 0.1224 -0.9690 0.2147
vt 0.000000 0.000000
vt 0.166667 0.000000
vt 0.333333 0.000000
vt 0.500000 0.000000
vt 0.666667 0.000000
vt 0.833333 0.000000
vt 1.000000 0.000000
vt 0.000000 0.000000
vt 0.166667 0.000000
vt 0.333333 0.000000
vt 0.500000 0.000000
vt 0.666667 0.000000
vt 0.833333 0.000000
vt 1.000000 0.000000
s 0
usemtl Material
f 1/1/1 3/3/1 2/2/1
f 7/7/1 3/3/1 1/1/1
f 4/4/1 6/6/1 5/5/1
f 7/7/1 4/4/1 3/3/1
f 7/7/1 6/6/1 4/4/1
f 8/8/2 9/9/2 10/10/2
f 14/14/2 8/8/2 10/10/2
f 11/11/2 12/12/2 13/13/2
f 14/14/2 10/10/2 11/11/2
f 14/14/2 11/11/2 13/13/2
f 1/1/3 2/2/3 9/9/3 8/8/3
f 2/2/4 3/3/4 10/10/4 9/9/4
f 7/7/5 1/1/5 8/8/5 14/14/5
f 4/4/6 5/5/6 12/12/6 11/11/6
f 5/5/7 6/6/7 13/13/7 12/12/7
f 3/3/8 4/4/8 11/11/8 10/10/8
f 6/6/9 7/7/9 14/14/9 13/13/9
