# Blender 3.3.1
# www.blender.org
mtllib F.mtl
o E
v -0.275328 -0.464027 -1.725291
v 0.354418 -0.468813 -2.060331
v 0.356303 -0.715298 -2.061334
v 0.094223 -1.028789 -1.921901
v -0.031160 -0.868454 -1.855194
v 0.094223 -0.710512 -1.921901
v 0.041430 -0.630345 -1.893814
v -0.143345 -0.873240 -1.795509
v 0.156444 -1.262112 -1.955004
v -0.272500 -1.258522 -1.726796
v -0.377024 -0.464027 -1.916441
v 0.252722 -0.468813 -2.251481
v 0.254607 -0.715298 -2.252484
v -0.007473 -1.028789 -2.113051
v -0.132856 -0.868454 -2.046344
v -0.007473 -0.710512 -2.113051
v -0.060266 -0.630345 -2.084964
v -0.245041 -0.873240 -1.986659
v 0.054747 -1.262112 -2.146154
v -0.374196 -1.258522 -1.917946
vn 0.4697 -0.0000 0.8828
vn -0.4697 -0.0000 -0.8828
vn -0.8828 -0.0040 0.4697
vn 0.6688 -0.6528 -0.3558
vn 0.0059 1.0000 -0.0032
vn 0.8828 0.0087 -0.4697
vn -0.7076 -0.5979 0.3765
vn -0.6565 0.6686 0.3493
vn -0.6608 -0.6631 0.3516
vn 0.6410 -0.6876 -0.3410
vn -0.0065 -1.0000 0.0035
vn 0.6650 0.6578 -0.3538
vt 0.000000 0.000000
vt 0.111111 0.000000
vt 0.222222 0.000000
vt 0.333333 0.000000
vt 0.444444 0.000000
vt 0.555556 0.000000
vt 0.666667 0.000000
vt 0.777778 0.000000
vt 0.888889 0.000000
vt 1.000000 0.000000
vt 0.000000 0.000000
vt 0.111111 0.000000
vt 0.222222 0.000000
vt 0.333333 0.000000
vt 0.444444 0.000000
vt 0.555556 0.000000
vt 0.666667 0.000000
vt 0.777778 0.000000
vt 0.888889 0.000000
vt 1.000000 0.000000
s 0
usemtl Material
f 10/10/1 8/8/1 1/1/1
f 8/8/1 7/7/1 1/1/1
f 7/7/1 2/2/1 1/1/1
f 7/7/1 3/3/1 2/2/1
f 6/6/1 3/3/1 7/7/1
f 5/5/1 3/3/1 6/6/1
f 5/5/1 4/4/1 3/3/1
f 10/10/1 9/9/1 8/8/1
f 20/20/2 11/11/2 18/18/2
f 18/18/2 11/11/2 17/17/2
f 17/17/2 11/11/2 12/12/2
f 17/17/2 12/12/2 13/13/2
f 16/16/2 17/17/2 13/13/2
f 15/15/2 16/16/2 13/13/2
f 15/15/2 13/13/2 14/14/2
f 20/20/2 18/18/2 19/19/2
f 10/10/3 1/1/3 11/11/3 20/20/3
f 7/7/4 8/8/4 18/18/4 17/17/4
f 1/1/5 2/2/5 12/12/5 11/11/5
f 2/2/6 3/3/6 13/13/6 12/12/6
f 6/6/7 7/7/7 17/17/7 16/16/7
f 5/5/8 6/6/8 16/16/8 15/15/8
f 4/4/9 5/5/9 15/15/9 14/14/9
f 3/3/10 4/4/10 14/14/10 13/13/10
f 9/9/11 10/10/11 20/20/11 19/19/11
f 8/8/12 9/9/12 19/19/12 18/18/12
