# Blender 3.3.1
# www.blender.org
mtllib G.mtl
o G
v -0.081893 0.233288 -0.721758
v 0.418929 0.228502 -0.721758
v 0.072945 -0.169942 -0.721758
v 0.274769 -0.406855 -0.721758
v 0.492610 -0.185497 -0.721758
v 0.353790 -0.009608 -0.721758
v 0.636771 -0.013197 -0.721758
v 0.639974 -0.569583 -0.721758
v -0.077621 -0.577959 -0.721758
v -0.081893 0.233288 -0.938277
v 0.418929 0.228502 -0.938277
v 0.072945 -0.169942 -0.938277
v 0.274769 -0.406855 -0.938277
v 0.492610 -0.185497 -0.938277
v 0.353790 -0.009608 -0.938277
v 0.636771 -0.013197 -0.938277
v 0.639974 -0.569583 -0.938277
v -0.077621 -0.577959 -0.938277
vn -0.0000 -0.0000 1.0000
vn -0.0000 -0.0000 -1.0000
vn -1.0000 -0.0053 -0.0000
vn 0.7551 -0.6557 -0.0000
vn 0.0096 1.0000 -0.0000
vn -0.7850 -0.6195 -0.0000
vn 0.0127 0.9999 -0.0000
vn 1.0000 0.0058 -0.0000
vn 0.7612 0.6485 -0.0000
vn -0.7127 0.7014 -0.0000
vn 0.0117 -0.9999 -0.0000
vt 0.000000 0.000000
vt 0.125000 0.000000
vt 0.250000 0.000000
vt 0.375000 0.000000
vt 0.500000 0.000000
vt 0.625000 0.000000
vt 0.750000 0.000000
vt 0.875000 0.000000
vt 1.000000 0.000000
vt 0.000000 0.000000
vt 0.125000 0.000000
vt 0.250000 0.000000
vt 0.375000 0.000000
vt 0.500000 0.000000
vt 0.625000 0.000000
vt 0.750000 0.000000
vt 0.875000 0.000000
vt 1.000000 0.000000
s 0
usemtl Material
f 9/9/1 3/3/1 1/1/1
f 3/3/1 2/2/1 1/1/1
f 5/5/1 7/7/1 6/6/1
f 5/5/1 8/8/1 7/7/1
f 9/9/1 4/4/1 3/3/1
f 4/4/1 8/8/1 5/5/1
f 9/9/1 8/8/1 4/4/1
f 18/18/2 10/10/2 12/12/2
f 12/12/2 10/10/2 11/11/2
f 14/14/2 15/15/2 16/16/2
f 14/14/2 16/16/2 17/17/2
f 18/18/2 12/12/2 13/13/2
f 13/13/2 14/14/2 17/17/2
f 18/18/2 13/13/2 17/17/2
f 9/9/3 1/1/3 10/10/3 18/18/3
f 2/2/4 3/3/4 12/12/4 11/11/4
f 1/1/5 2/2/5 11/11/5 10/10/5
f 5/5/6 6/6/6 15/15/6 14/14/6
f 6/6/7 7/7/7 16/16/7 15/15/7
f 7/7/8 8/8/8 17/17/8 16/16/8
f 3/3/9 4/4/9 13/13/9 12/12/9
f 4/4/10 5/5/10 14/14/10 13/13/10
f 8/8/11 9/9/11 18/18/11 17/17/11
