# Blender 3.3.1
# www.blender.org
mtllib I.mtl
o I
v -0.666566 0.216001 0.099954
v -0.734799 0.032613 0.077520
v -0.529740 -0.584002 0.144940
v -0.307437 -0.496175 0.218029
v -0.559854 0.253852 0.135039
v -0.598939 0.216001 -0.105733
v -0.667173 0.032613 -0.128167
v -0.462114 -0.584002 -0.060747
v -0.239810 -0.496175 0.012342
v -0.492228 0.253852 -0.070648
vn -0.3123 -0.0000 0.9500
vn 0.3123 -0.0000 -0.9500
vn -0.8845 0.3647 -0.2908
vn -0.3033 0.9476 -0.0997
vn 0.8954 0.3339 0.2944
vn -0.8966 -0.3304 -0.2948
vn 0.3338 -0.9362 0.1097
vt 0.000000 0.000000
vt 0.250000 0.000000
vt 0.500000 0.000000
vt 0.750000 0.000000
vt 1.000000 0.000000
vt 0.000000 0.000000
vt 0.250000 0.000000
vt 0.500000 0.000000
vt 0.750000 0.000000
vt 1.000000 0.000000
s 0
usemtl Material
f 2/2/1 5/5/1 1/1/1
f 2/2/1 4/4/1 5/5/1
f 3/3/1 4/4/1 2/2/1
f 7/7/2 6/6/2 10/10/2
f 7/7/2 10/10/2 9/9/2
f 8/8/2 7/7/2 9/9/2
f 2/2/3 1/1/3 6/6/3 7/7/3
f 1/1/4 5/5/4 10/10/4 6/6/4
f 5/5/5 4/4/5 9/9/5 10/10/5
f 3/3/6 2/2/6 7/7/6 8/8/6
f 4/4/7 3/3/7 8/8/7 9/9/7
