# Blender 3.3.1
# www.blender.org
mtllib J.mtl
o J
v -1.218594 0.595711 -0.844643
v -1.346736 0.449040 -0.832498
v -1.343532 0.085343 -0.802382
v -1.596613 -0.186535 -0.779868
v -1.096859 -0.184150 -0.780066
v -1.092587 0.594519 -0.844544
v -1.218594 0.577843 -1.060424
v -1.346736 0.431172 -1.048279
v -1.343532 0.067475 -1.018162
v -1.596613 -0.204403 -0.995649
v -1.096859 -0.202018 -0.995847
v -1.092587 0.576651 -1.060325
vn -0.0000 0.0825 0.9966
vn -0.0000 -0.0825 -0.9966
vn -0.7542 0.6544 -0.0542
vn 0.0095 0.9965 -0.0825
vn 1.0000 -0.0054 0.0005
vn -1.0000 -0.0087 0.0007
vn -0.7331 0.6778 -0.0561
vn 0.0048 -0.9966 0.0825
vt 0.000000 0.000000
vt 0.200000 0.000000
vt 0.400000 0.000000
vt 0.600000 0.000000
vt 0.800000 0.000000
vt 1.000000 0.000000
vt 0.000000 0.000000
vt 0.200000 0.000000
vt 0.400000 0.000000
vt 0.600000 0.000000
vt 0.800000 0.000000
vt 1.000000 0.000000
s 0
usemtl Material
f 2/2/1 6/6/1 1/1/1
f 2/2/1 5/5/1 6/6/1
f 3/3/1 5/5/1 2/2/1
f 4/4/1 5/5/1 3/3/1
f 8/8/2 7/7/2 12/12/2
f 8/8/2 12/12/2 11/11/2
f 9/9/2 8/8/2 11/11/2
f 10/10/2 9/9/2 11/11/2
f 2/2/3 1/1/3 7/7/3 8/8/3
f 1/1/4 6/6/4 12/12/4 7/7/4
f 6/6/5 5/5/5 11/11/5 12/12/5
f 3/3/6 2/2/6 8/8/6 9/9/6
f 4/4/7 3/3/7 9/9/7 10/10/7
f 5/5/8 4/4/8 10/10/8 11/11/8
