# Blender 3.3.1
# www.blender.org
mtllib K.mtl
o K
v -1.030225 -0.186189 -1.112781
v -0.551999 -0.361476 -1.119840
v -1.023003 -0.608711 -1.192581
v -0.918001 -0.897824 -1.241701
v -0.823647 -0.846687 -1.226824
v -0.907325 -0.649905 -1.194060
v -0.442966 -0.399058 -1.120997
v -0.359476 -0.428790 -1.122064
v -0.440565 -0.651634 -1.168805
v -0.634515 -0.749549 -1.198020
v -0.551689 -0.936058 -1.228880
v -0.630523 -1.168427 -1.277306
v -1.298467 -0.924333 -1.267586
v -1.018582 -0.145872 -1.325195
v -0.540356 -0.321159 -1.332253
v -1.011360 -0.568394 -1.404995
v -0.906359 -0.857507 -1.454115
v -0.812005 -0.806370 -1.439237
v -0.895683 -0.609588 -1.406474
v -0.431323 -0.358741 -1.333410
v -0.347834 -0.388473 -1.334478
v -0.428922 -0.611317 -1.381219
v -0.622872 -0.709232 -1.410434
v -0.540047 -0.895741 -1.441294
v -0.618881 -1.128110 -1.489720
v -1.286825 -0.884016 -1.480000
vn -0.0538 -0.1862 0.9810
vn 0.0538 0.1862 -0.9810
vn -0.9406 0.3391 0.0128
vn 0.4770 -0.8679 -0.1386
vn 0.3402 0.9203 0.1933
vn -0.4874 0.8624 0.1370
vn 0.3313 0.9235 0.1934
vn 0.9405 -0.3395 -0.0129
vn 0.4630 -0.8751 -0.1407
vn 0.9399 0.3222 0.1127
vn -0.9206 -0.3713 -0.1209
vn 0.9144 0.3857 0.1233
vn 0.9475 -0.3196 -0.0087
vn -0.4886 0.8617 0.1368
vn -0.3392 -0.9206 -0.1933
vt 0.000000 0.000000
vt 0.083333 0.000000
vt 0.166667 0.000000
vt 0.250000 0.000000
vt 0.333333 0.000000
vt 0.416667 0.000000
vt 0.500000 0.000000
vt 0.583333 0.000000
vt 0.666667 0.000000
vt 0.750000 0.000000
vt 0.833333 0.000000
vt 0.916667 0.000000
vt 1.000000 0.000000
vt 0.000000 0.000000
vt 0.083333 0.000000
vt 0.166667 0.000000
vt 0.250000 0.000000
vt 0.333333 0.000000
vt 0.416667 0.000000
vt 0.500000 0.000000
vt 0.583333 0.000000
vt 0.666667 0.000000
vt 0.750000 0.000000
vt 0.833333 0.000000
vt 0.916667 0.000000
vt 1.000000 0.000000
s 0
usemtl Material
f 13/13/1 3/3/1 1/1/1
f 3/3/1 2/2/1 1/1/1
f 6/6/1 8/8/1 7/7/1
f 6/6/1 9/9/1 8/8/1
f 6/6/1 10/10/1 9/9/1
f 13/13/1 4/4/1 3/3/1
f 5/5/1 10/10/1 6/6/1
f 5/5/1 11/11/1 10/10/1
f 5/5/1 12/12/1 11/11/1
f 4/4/1 12/12/1 5/5/1
f 13/13/1 12/12/1 4/4/1
f 26/26/2 14/14/2 16/16/2
f 16/16/2 14/14/2 15/15/2
f 19/19/2 20/20/2 21/21/2
f 19/19/2 21/21/2 22/22/2
f 19/19/2 22/22/2 23/23/2
f 26/26/2 16/16/2 17/17/2
f 18/18/2 19/19/2 23/23/2
f 18/18/2 23/23/2 24/24/2
f 18/18/2 24/24/2 25/25/2
f 17/17/2 18/18/2 25/25/2
f 26/26/2 17/17/2 25/25/2
f 13/13/3 1/1/3 14/14/3 26/26/3
f 2/2/4 3/3/4 16/16/4 15/15/4
f 1/1/5 2/2/5 15/15/5 14/14/5
f 6/6/6 7/7/6 20/20/6 19/19/6
f 7/7/7 8/8/7 21/21/7 20/20/7
f 8/8/8 9/9/8 22/22/8 21/21/8
f 9/9/9 10/10/9 23/23/9 22/22/9
f 3/3/10 4/4/10 17/17/10 16/16/10
f 5/5/11 6/6/11 19/19/11 18/18/11
f 10/10/12 11/11/12 24/24/12 23/23/12
f 11/11/13 12/12/13 25/25/13 24/24/13
f 4/4/14 5/5/14 18/18/14 17/17/14
f 12/12/15 13/13/15 26/26/15 25/25/15
