# Blender 3.3.1
# www.blender.org
mtllib L.mtl
o L
v -1.799857 -1.171134 -1.605927
v -1.574522 -1.172286 -1.500425
v -1.517497 -1.668998 -1.626837
v -1.251034 -1.935218 -1.583769
v -1.708897 -1.945590 -1.802062
v -1.711184 -1.112916 -1.794681
v -1.485850 -1.114068 -1.689179
v -1.428824 -1.610780 -1.815591
v -1.162361 -1.877000 -1.772524
v -1.620224 -1.887372 -1.990817
vn -0.4095 -0.2689 0.8718
vn 0.4095 0.2689 -0.8718
vn -0.9053 0.0013 -0.4249
vn -0.1100 0.9632 0.2454
vn 0.9056 -0.0040 0.4242
vn 0.1335 -0.9630 -0.2343
vn 0.5816 0.6592 0.4766
vt 0.000000 0.000000
vt 0.250000 0.000000
vt 0.500000 0.000000
vt 0.750000 0.000000
vt 1.000000 0.000000
vt 0.000000 0.000000
vt 0.250000 0.000000
vt 0.500000 0.000000
vt 0.750000 0.000000
vt 1.000000 0.000000
s 0
usemtl Material
f 5/5/1 2/2/1 1/1/1
f 5/5/1 3/3/1 2/2/1
f 5/5/1 4/4/1 3/3/1
f 10/10/2 6/6/2 7/7/2
f 10/10/2 7/7/2 8/8/2
f 10/10/2 8/8/2 9/9/2
f 5/5/3 1/1/3 6/6/3 10/10/3
f 1/1/4 2/2/4 7/7/4 6/6/4
f 2/2/5 3/3/5 8/8/5 7/7/5
f 4/4/6 5/5/6 10/10/6 9/9/6
f 3/3/7 4/4/7 9/9/7 8/8/7
