# Blender 3.3.1
# www.blender.org
mtllib N.mtl
o N
v 0.288817 -0.284894 -1.090706
v 0.506528 -0.326055 -1.073210
v 0.689246 -0.665355 -0.928992
v 0.754437 -0.368106 -1.055337
v 0.969476 -0.407015 -1.038799
v 0.847613 -0.980773 -0.794924
v 0.635247 -0.944116 -0.810505
v 0.446403 -0.609072 -0.952914
v 0.389244 -0.897953 -0.830126
v 0.167606 -0.860547 -0.846026
v 0.288817 -0.378380 -1.310647
v 0.506528 -0.419541 -1.293152
v 0.689246 -0.758841 -1.148933
v 0.754437 -0.461592 -1.275278
v 0.969476 -0.500501 -1.258740
v 0.847613 -1.074258 -1.014866
v 0.635247 -1.037602 -1.030447
v 0.446403 -0.702558 -1.172856
v 0.389244 -0.991439 -1.050068
v 0.167606 -0.954033 -1.065967
vn -0.0000 0.3912 0.9203
vn -0.0000 -0.3912 -0.9203
vn -0.9817 0.1751 -0.0744
vn 0.2012 0.9015 -0.3832
vn -0.9802 0.1821 -0.0774
vn 0.1929 0.9030 -0.3838
vn 0.9814 -0.1766 0.0750
vn 0.8960 0.4087 -0.1737
vn -0.1804 -0.9052 0.3848
vn 0.9838 -0.1649 0.0701
vn -0.8877 -0.4238 0.1801
vn -0.1843 -0.9045 0.3845
vt 0.000000 0.000000
vt 0.111111 0.000000
vt 0.222222 0.000000
vt 0.333333 0.000000
vt 0.444444 0.000000
vt 0.555556 0.000000
vt 0.666667 0.000000
vt 0.777778 0.000000
vt 0.888889 0.000000
vt 1.000000 0.000000
vt 0.000000 0.000000
vt 0.111111 0.000000
vt 0.222222 0.000000
vt 0.333333 0.000000
vt 0.444444 0.000000
vt 0.555556 0.000000
vt 0.666667 0.000000
vt 0.777778 0.000000
vt 0.888889 0.000000
vt 1.000000 0.000000
s 0
usemtl Material
f 10/10/1 2/2/1 1/1/1
f 3/3/1 5/5/1 4/4/1
f 3/3/1 6/6/1 5/5/1
f 10/10/1 8/8/1 2/2/1
f 8/8/1 3/3/1 2/2/1
f 10/10/1 9/9/1 8/8/1
f 7/7/1 3/3/1 8/8/1
f 7/7/1 6/6/1 3/3/1
f 20/20/2 11/11/2 12/12/2
f 13/13/2 14/14/2 15/15/2
f 13/13/2 15/15/2 16/16/2
f 20/20/2 12/12/2 18/18/2
f 18/18/2 12/12/2 13/13/2
f 20/20/2 18/18/2 19/19/2
f 17/17/2 18/18/2 13/13/2
f 17/17/2 13/13/2 16/16/2
f 10/10/3 1/1/3 11/11/3 20/20/3
f 1/1/4 2/2/4 12/12/4 11/11/4
f 3/3/5 4/4/5 14/14/5 13/13/5
f 4/4/6 5/5/6 15/15/6 14/14/6
f 5/5/7 6/6/7 16/16/7 15/15/7
f 2/2/8 3/3/8 13/13/8 12/12/8
f 9/9/9 10/10/9 20/20/9 19/19/9
f 8/8/10 9/9/10 19/19/10 18/18/10
f 7/7/11 8/8/11 18/18/11 17/17/11
f 6/6/12 7/7/12 17/17/12 16/16/12
