# Blender 3.3.1
# www.blender.org
mtllib P.mtl
o P
v -0.858696 -0.764422 -1.366629
v -0.282407 -1.024938 -1.649931
v -0.427686 -1.546043 -1.488968
v -0.594121 -1.471899 -1.406983
v -0.656184 -1.689186 -1.339033
v -1.070517 -1.504607 -1.134933
v -0.614625 -1.044859 -1.460656
v -0.508081 -1.332208 -1.476532
v -0.739272 -1.488040 -1.323151
v -0.837316 -1.191852 -1.313388
v -0.974535 -0.795956 -1.573271
v -0.398246 -1.056472 -1.856573
v -0.543526 -1.577577 -1.695610
v -0.709960 -1.503433 -1.613625
v -0.772024 -1.720720 -1.545675
v -1.186356 -1.536141 -1.341575
v -0.730464 -1.076393 -1.667297
v -0.623921 -1.363742 -1.683174
v -0.855111 -1.519574 -1.529793
v -0.953155 -1.223386 -1.520030
vn 0.4847 0.1319 0.8647
vn -0.4847 -0.1319 -0.8647
vn -0.4847 -0.1320 -0.8647
vn -0.8341 0.3675 0.4115
vn 0.4808 -0.8660 -0.1374
vn 0.2711 0.9172 -0.2919
vn 0.8359 -0.3608 -0.4136
vn -0.8028 -0.3253 0.4997
vn -0.4870 0.8618 0.1415
vn -0.2667 -0.9192 0.2898
vn 0.8163 0.2867 -0.5014
vn 0.8342 -0.3670 -0.4116
vt 0.000000 0.000000
vt 0.111111 0.000000
vt 0.222222 0.000000
vt 0.333333 0.000000
vt 0.444444 0.000000
vt 0.555556 0.000000
vt 0.666667 0.000000
vt 0.777778 0.000000
vt 0.888889 0.000000
vt 1.000000 0.000000
vt 0.000000 0.000000
vt 0.111111 0.000000
vt 0.222222 0.000000
vt 0.333333 0.000000
vt 0.444444 0.000000
vt 0.555556 0.000000
vt 0.666667 0.000000
vt 0.777778 0.000000
vt 0.888889 0.000000
vt 1.000000 0.000000
s 0
usemtl Material
f 6/6/1 10/10/1 1/1/1
f 10/10/1 7/7/1 1/1/1
f 7/7/1 2/2/1 1/1/1
f 7/7/1 3/3/1 2/2/1
f 8/8/1 3/3/1 7/7/1
f 9/9/1 4/4/1 8/8/1
f 4/4/1 3/3/1 8/8/1
f 6/6/1 9/9/1 10/10/1
f 9/9/1 5/5/1 4/4/1
f 6/6/1 5/5/1 9/9/1
f 16/16/2 11/11/2 20/20/2
f 20/20/2 11/11/2 17/17/2
f 17/17/2 11/11/2 12/12/2
f 17/17/2 12/12/2 13/13/2
f 18/18/3 17/17/3 13/13/3
f 19/19/2 18/18/2 14/14/2
f 14/14/2 18/18/2 13/13/2
f 16/16/2 20/20/2 19/19/2
f 19/19/2 14/14/2 15/15/2
f 16/16/2 19/19/2 15/15/2
f 6/6/4 1/1/4 11/11/4 16/16/4
f 7/7/5 10/10/5 20/20/5 17/17/5
f 1/1/6 2/2/6 12/12/6 11/11/6
f 2/2/7 3/3/7 13/13/7 12/12/7
f 8/8/8 7/7/8 17/17/8 18/18/8
f 9/9/9 8/8/9 18/18/9 19/19/9
f 3/3/10 4/4/10 14/14/10 13/13/10
f 10/10/11 9/9/11 19/19/11 20/20/11
f 4/4/12 5/5/12 15/15/12 14/14/12
f 5/5/10 6/6/10 16/16/10 15/15/10
