# Blender 3.3.1
# www.blender.org
mtllib Q.mtl
o Q
v -1.161882 0.417952 -0.919443
v -0.534815 0.412124 -1.189054
v -0.619151 -0.344376 -1.415983
v -1.262038 -0.342045 -1.140837
v -0.864068 0.262922 -1.100408
v -0.597948 -0.121739 -1.347655
v -0.780824 -0.131064 -1.272858
v -0.809947 -0.347873 -1.335781
v -1.076798 0.030960 -1.090248
v -1.251226 0.490719 -1.128815
v -0.624159 0.484890 -1.398426
v -0.708495 -0.271610 -1.625355
v -1.351382 -0.269278 -1.350209
v -0.953412 0.335688 -1.309780
v -0.687292 -0.048973 -1.557027
v -0.870168 -0.058298 -1.482230
v -0.899292 -0.275107 -1.545153
v -1.166142 0.103726 -1.299620
vn 0.3738 -0.3045 0.8761
vn -0.3738 0.3045 -0.8761
vn -0.9190 0.0062 0.3943
vn 0.6355 -0.6039 -0.4811
vn 0.1277 0.9525 0.2765
vn -0.7793 -0.6154 0.1187
vn 0.9214 0.0138 -0.3884
vn 0.7754 0.6208 -0.1151
vn 0.0738 0.9514 0.2991
vn -0.9186 0.0087 0.3950
vn 0.1227 0.9525 0.2787
vt 0.000000 0.000000
vt 0.125000 0.000000
vt 0.250000 0.000000
vt 0.375000 0.000000
vt 0.500000 0.000000
vt 0.625000 0.000000
vt 0.750000 0.000000
vt 0.875000 0.000000
vt 1.000000 0.000000
vt 0.000000 0.000000
vt 0.125000 0.000000
vt 0.250000 0.000000
vt 0.375000 0.000000
vt 0.500000 0.000000
vt 0.625000 0.000000
vt 0.750000 0.000000
vt 0.875000 0.000000
vt 1.000000 0.000000
s 0
usemtl Material
f 4/4/1 9/9/1 1/1/1
f 9/9/1 5/5/1 1/1/1
f 5/5/1 2/2/1 1/1/1
f 5/5/1 6/6/1 2/2/1
f 6/6/1 3/3/1 2/2/1
f 4/4/1 8/8/1 9/9/1
f 7/7/1 3/3/1 6/6/1
f 8/8/1 3/3/1 7/7/1
f 8/8/1 3/3/1 4/4/1
f 13/13/2 10/10/2 18/18/2
f 18/18/2 10/10/2 14/14/2
f 14/14/2 10/10/2 11/11/2
f 14/14/2 11/11/2 15/15/2
f 15/15/2 11/11/2 12/12/2
f 13/13/2 18/18/2 17/17/2
f 16/16/2 15/15/2 12/12/2
f 17/17/2 16/16/2 12/12/2
f 17/17/2 13/13/2 12/12/2
f 4/4/3 1/1/3 10/10/3 13/13/3
f 5/5/4 9/9/4 18/18/4 14/14/4
f 1/1/5 2/2/5 11/11/5 10/10/5
f 6/6/6 5/5/6 14/14/6 15/15/6
f 2/2/7 3/3/7 12/12/7 11/11/7
f 9/9/8 8/8/8 17/17/8 18/18/8
f 7/7/9 6/6/9 15/15/9 16/16/9
f 8/8/10 7/7/10 16/16/10 17/17/10
f 4/4/11 3/3/11 12/12/11 13/13/11
