# Blender 3.3.1
# www.blender.org
mtllib R.mtl
o R
v 0.358618 -0.062407 -0.426295
v 1.021981 0.100323 -0.328695
v 1.166435 -0.436413 -0.413253
v 1.045638 -0.467159 -0.431232
v 1.198776 -0.566266 -0.433976
v 1.224974 -0.668109 -0.450143
v 1.025030 -0.713711 -0.478924
v 0.718006 -0.496040 -0.469914
v 0.767234 -0.269780 -0.423062
v 0.877701 -0.240227 -0.406355
v 0.740131 -0.131339 -0.400218
v 0.556737 -0.816029 -0.545501
v 0.382413 -0.019164 -0.660128
v 1.045776 0.143566 -0.562528
v 1.190230 -0.393171 -0.647086
v 1.069434 -0.423917 -0.665065
v 1.222571 -0.523024 -0.667809
v 1.248770 -0.624866 -0.683976
v 1.048826 -0.670468 -0.712756
v 0.741802 -0.452798 -0.703747
v 0.791030 -0.226538 -0.656895
v 0.901496 -0.196984 -0.640188
v 0.763927 -0.088096 -0.634051
v 0.580533 -0.772786 -0.779333
vn -0.0996 -0.1809 0.9784
vn 0.0996 0.1809 -0.9784
vn -0.2564 0.9548 0.1505
vn 0.9613 0.2364 0.1415
vn -0.9628 -0.2309 -0.1407
vn 0.9622 -0.2680 0.0484
vn -0.6132 -0.7633 -0.2035
vn -0.2764 0.9497 0.1475
vn -0.9730 0.2236 -0.0577
vn -0.5701 -0.7956 -0.2051
vn 0.2647 -0.9527 -0.1492
vn 0.5343 0.8198 0.2060
vn 0.2406 -0.9585 -0.1528
vn 0.9641 0.2258 0.1399
vt 0.000000 0.000000
vt 0.090909 0.000000
vt 0.181818 0.000000
vt 0.272727 0.000000
vt 0.363636 0.000000
vt 0.454545 0.000000
vt 0.545455 0.000000
vt 0.636364 0.000000
vt 0.727273 0.000000
vt 0.818182 0.000000
vt 0.909091 0.000000
vt 1.000000 0.000000
vt 0.000000 0.000000
vt 0.090909 0.000000
vt 0.181818 0.000000
vt 0.272727 0.000000
vt 0.363636 0.000000
vt 0.454545 0.000000
vt 0.545455 0.000000
vt 0.636364 0.000000
vt 0.727273 0.000000
vt 0.818182 0.000000
vt 0.909091 0.000000
vt 1.000000 0.000000
s 0
usemtl Material
f 1/1/1 11/11/1 2/2/1
f 11/11/1 3/3/1 2/2/1
f 12/12/1 11/11/1 1/1/1
f 10/10/1 3/3/1 11/11/1
f 9/9/1 3/3/1 10/10/1
f 8/8/1 3/3/1 9/9/1
f 7/7/1 4/4/1 8/8/1
f 4/4/1 3/3/1 8/8/1
f 7/7/1 5/5/1 4/4/1
f 7/7/1 6/6/1 5/5/1
f 13/13/2 14/14/2 23/23/2
f 23/23/2 14/14/2 15/15/2
f 24/24/2 13/13/2 23/23/2
f 22/22/2 23/23/2 15/15/2
f 21/21/2 22/22/2 15/15/2
f 20/20/2 21/21/2 15/15/2
f 19/19/2 20/20/2 16/16/2
f 16/16/2 20/20/2 15/15/2
f 19/19/2 16/16/2 17/17/2
f 19/19/2 17/17/2 18/18/2
f 1/1/3 2/2/3 14/14/3 13/13/3
f 2/2/4 3/3/4 15/15/4 14/14/4
f 12/12/5 1/1/5 13/13/5 24/24/5
f 11/11/6 12/12/6 24/24/6 23/23/6
f 10/10/7 11/11/7 23/23/7 22/22/7
f 9/9/8 10/10/8 22/22/8 21/21/8
f 8/8/9 9/9/9 21/21/9 20/20/9
f 7/7/10 8/8/10 20/20/10 19/19/10
f 3/3/11 4/4/11 16/16/11 15/15/11
f 4/4/12 5/5/12 17/17/12 16/16/12
f 6/6/13 7/7/13 19/19/13 18/18/13
f 5/5/14 6/6/14 18/18/14 17/17/14
