# Blender 3.3.1
# www.blender.org
mtllib T.mtl
o T
v -0.769242 -0.124248 0.716133
v -0.730071 -0.627539 0.955112
v -0.538412 -0.421839 0.746052
v -0.508068 -0.879594 0.966242
v -0.292086 -0.912983 0.867643
v -0.325902 -0.459131 0.651332
v -0.103825 -0.725568 0.669851
v -0.143309 -0.217808 0.428733
v -0.872947 -0.224127 0.522786
v -0.833777 -0.727417 0.761764
v -0.642118 -0.521718 0.552704
v -0.611774 -0.979473 0.772894
v -0.395792 -1.012862 0.674296
v -0.429608 -0.559010 0.457985
v -0.207530 -0.825447 0.476504
v -0.247015 -0.317687 0.235386
vn 0.4302 0.4143 0.8020
vn -0.4302 -0.4143 -0.8020
vn -0.9000 0.1278 0.4167
vn 0.7181 -0.6954 -0.0259
vn -0.0634 0.9001 -0.4310
vn -0.6373 -0.4899 0.5949
vn 0.9000 -0.1279 -0.4167
vn -0.9008 0.1383 0.4117
vn 0.0587 -0.8994 0.4331
vn 0.9002 -0.1308 -0.4153
vt 0.000000 0.000000
vt 0.142857 0.000000
vt 0.285714 0.000000
vt 0.428571 0.000000
vt 0.571429 0.000000
vt 0.714286 0.000000
vt 0.857143 0.000000
vt 1.000000 0.000000
vt 0.000000 0.000000
vt 0.142857 0.000000
vt 0.285714 0.000000
vt 0.428571 0.000000
vt 0.571429 0.000000
vt 0.714286 0.000000
vt 0.857143 0.000000
vt 1.000000 0.000000
s 0
usemtl Material
f 2/2/1 3/3/1 1/1/1
f 3/3/1 8/8/1 1/1/1
f 3/3/1 6/6/1 8/8/1
f 6/6/1 7/7/1 8/8/1
f 4/4/1 6/6/1 3/3/1
f 4/4/1 5/5/1 6/6/1
f 10/10/2 9/9/2 11/11/2
f 11/11/2 9/9/2 16/16/2
f 11/11/2 16/16/2 14/14/2
f 14/14/2 16/16/2 15/15/2
f 12/12/2 11/11/2 14/14/2
f 12/12/2 14/14/2 13/13/2
f 2/2/3 1/1/3 9/9/3 10/10/3
f 3/3/4 2/2/4 10/10/4 11/11/4
f 1/1/5 8/8/5 16/16/5 9/9/5
f 7/7/6 6/6/6 14/14/6 15/15/6
f 8/8/7 7/7/7 15/15/7 16/16/7
f 4/4/8 3/3/8 11/11/8 12/12/8
f 5/5/9 4/4/9 12/12/9 13/13/9
f 6/6/10 5/5/10 13/13/10 14/14/10
