# Blender 3.3.1
# www.blender.org
mtllib U.mtl
o U
v 0.139188 0.085995 1.098242
v 0.348719 0.002221 1.174014
v 0.296247 -0.413832 0.860522
v 0.378182 -0.538774 0.828030
v 0.488985 -0.491661 0.929703
v 0.542615 -0.081143 1.240196
v 0.746829 -0.167770 1.310690
v 0.662043 -0.799948 0.831159
v 0.223359 -0.612136 0.680887
v 0.074613 -0.359419 0.757325
v 0.249998 0.204327 0.922650
v 0.459529 0.120553 0.998422
v 0.407058 -0.295500 0.684930
v 0.488992 -0.420442 0.652438
v 0.599795 -0.373329 0.754111
v 0.653425 0.037189 1.064604
v 0.857639 -0.049438 1.135098
v 0.772853 -0.681616 0.655567
v 0.334169 -0.493804 0.505295
v 0.185423 -0.241087 0.581733
vn -0.4637 -0.4951 0.7347
vn 0.4637 0.4951 -0.7347
vn 0.1010 0.7943 0.5990
vn 0.8803 -0.3513 0.3188
vn -0.8786 0.3640 -0.3092
vn -0.8799 0.3543 -0.3165
vn 0.1235 0.7851 0.6070
vn 0.8796 -0.3567 0.3147
vn -0.5391 0.8158 0.2095
vn 0.7056 0.2952 0.6442
vn -0.7376 -0.2437 -0.6297
vn -0.1271 -0.7835 -0.6082
vt 0.000000 0.000000
vt 0.111111 0.000000
vt 0.222222 0.000000
vt 0.333333 0.000000
vt 0.444444 0.000000
vt 0.555556 0.000000
vt 0.666667 0.000000
vt 0.777778 0.000000
vt 0.888889 0.000000
vt 1.000000 0.000000
vt 0.000000 0.000000
vt 0.111111 0.000000
vt 0.222222 0.000000
vt 0.333333 0.000000
vt 0.444444 0.000000
vt 0.555556 0.000000
vt 0.666667 0.000000
vt 0.777778 0.000000
vt 0.888889 0.000000
vt 1.000000 0.000000
s 0
usemtl Material
f 1/1/1 3/3/1 2/2/1
f 10/10/1 3/3/1 1/1/1
f 5/5/1 7/7/1 6/6/1
f 5/5/1 8/8/1 7/7/1
f 4/4/1 8/8/1 5/5/1
f 10/10/1 4/4/1 3/3/1
f 9/9/1 4/4/1 10/10/1
f 9/9/1 8/8/1 4/4/1
f 11/11/2 12/12/2 13/13/2
f 20/20/2 11/11/2 13/13/2
f 15/15/2 16/16/2 17/17/2
f 15/15/2 17/17/2 18/18/2
f 14/14/2 15/15/2 18/18/2
f 20/20/2 13/13/2 14/14/2
f 19/19/2 20/20/2 14/14/2
f 19/19/2 14/14/2 18/18/2
f 1/1/3 2/2/3 12/12/3 11/11/3
f 2/2/4 3/3/4 13/13/4 12/12/4
f 10/10/5 1/1/5 11/11/5 20/20/5
f 5/5/6 6/6/6 16/16/6 15/15/6
f 6/6/7 7/7/7 17/17/7 16/16/7
f 7/7/8 8/8/8 18/18/8 17/17/8
f 4/4/9 5/5/9 15/15/9 14/14/9
f 3/3/10 4/4/10 14/14/10 13/13/10
f 9/9/11 10/10/11 20/20/11 19/19/11
f 8/8/12 9/9/12 19/19/12 18/18/12
