# Blender 3.3.1
# www.blender.org
mtllib V.mtl
o V
v -0.603001 -0.062191 0.866959
v -0.392657 -0.096652 0.987036
v -0.621090 -0.365463 1.334365
v -0.586582 -0.443586 1.467118
v -0.440506 -0.393981 1.435787
v -0.207770 -0.121347 1.083851
v -0.000838 -0.153808 1.199732
v -0.261055 -0.463275 1.600465
v -0.543332 -0.561731 1.665062
v -0.797047 -0.525246 1.528153
v -0.853703 -0.364148 1.258976
v -0.562915 -0.260538 0.739815
v -0.352571 -0.294998 0.859892
v -0.581005 -0.563810 1.207221
v -0.546496 -0.641933 1.339974
v -0.400421 -0.592327 1.308643
v -0.167684 -0.319693 0.956707
v 0.039248 -0.352155 1.072588
v -0.220969 -0.661622 1.473320
v -0.503246 -0.760078 1.537918
v -0.756962 -0.723593 1.401009
v -0.813618 -0.562495 1.131832
vn -0.1677 0.8300 0.5320
vn 0.1677 -0.8300 -0.5320
vn -0.8761 0.1219 -0.4664
vn 0.4823 0.5398 -0.6900
vn -0.8702 0.1290 -0.4755
vn 0.4739 0.5411 -0.6947
vn 0.8735 -0.1251 0.4706
vn 0.8712 -0.1278 0.4740
vn 0.9613 0.2574 -0.0984
vn -0.3328 0.4603 -0.8230
vn -0.9697 -0.2362 0.0627
vn 0.3465 -0.4556 0.8200
vn -0.4578 -0.5435 0.7036
vt 0.000000 0.000000
vt 0.100000 0.000000
vt 0.200000 0.000000
vt 0.300000 0.000000
vt 0.400000 0.000000
vt 0.500000 0.000000
vt 0.600000 0.000000
vt 0.700000 0.000000
vt 0.800000 0.000000
vt 0.900000 0.000000
vt 1.000000 0.000000
vt 0.000000 0.000000
vt 0.100000 0.000000
vt 0.200000 0.000000
vt 0.300000 0.000000
vt 0.400000 0.000000
vt 0.500000 0.000000
vt 0.600000 0.000000
vt 0.700000 0.000000
vt 0.800000 0.000000
vt 0.900000 0.000000
vt 1.000000 0.000000
s 0
usemtl Material
f 11/11/1 2/2/1 1/1/1
f 5/5/1 7/7/1 6/6/1
f 5/5/1 8/8/1 7/7/1
f 11/11/1 3/3/1 2/2/1
f 11/11/1 4/4/1 3/3/1
f 4/4/1 8/8/1 5/5/1
f 10/10/1 4/4/1 11/11/1
f 4/4/1 9/9/1 8/8/1
f 10/10/1 9/9/1 4/4/1
f 22/22/2 12/12/2 13/13/2
f 16/16/2 17/17/2 18/18/2
f 16/16/2 18/18/2 19/19/2
f 22/22/2 13/13/2 14/14/2
f 22/22/2 14/14/2 15/15/2
f 15/15/2 16/16/2 19/19/2
f 21/21/2 22/22/2 15/15/2
f 15/15/2 19/19/2 20/20/2
f 21/21/2 15/15/2 20/20/2
f 11/11/3 1/1/3 12/12/3 22/22/3
f 1/1/4 2/2/4 13/13/4 12/12/4
f 5/5/5 6/6/5 17/17/5 16/16/5
f 6/6/6 7/7/6 18/18/6 17/17/6
f 7/7/7 8/8/7 19/19/7 18/18/7
f 2/2/8 3/3/8 14/14/8 13/13/8
f 3/3/9 4/4/9 15/15/9 14/14/9
f 4/4/10 5/5/10 16/16/10 15/15/10
f 10/10/11 11/11/11 22/22/11 21/21/11
f 8/8/12 9/9/12 20/20/12 19/19/12
f 9/9/13 10/10/13 21/21/13 20/20/13
