# Blender 3.3.1
# www.blender.org
mtllib W.mtl
o W
v 0.095235 0.052754 0.547119
v 0.271187 0.020805 0.428408
v 0.238053 -0.342463 0.450763
v 0.270958 -0.347062 0.428563
v 0.361919 -0.204031 0.367193
v 0.430689 -0.374292 0.320795
v 0.457417 -0.379254 0.302763
v 0.498123 -0.001101 0.275298
v 0.665996 -0.025790 0.162038
v 0.594604 -0.823964 0.210205
v 0.413741 -0.797460 0.332230
v 0.328785 -0.567299 0.389548
v 0.202571 -0.766720 0.474702
v 0.022058 -0.736586 0.596491
v -0.038427 0.052754 0.349007
v 0.137525 0.020805 0.230296
v 0.104391 -0.342463 0.252651
v 0.137296 -0.347062 0.230451
v 0.228257 -0.204031 0.169081
v 0.297027 -0.374292 0.122683
v 0.323754 -0.379254 0.104650
v 0.364461 -0.001101 0.077186
v 0.532334 -0.025790 -0.036074
v 0.460941 -0.823964 0.012093
v 0.280078 -0.797460 0.134118
v 0.195123 -0.567299 0.191436
v 0.068909 -0.766720 0.276590
v -0.111605 -0.736586 0.398379
vn 0.5593 -0.0000 0.8290
vn -0.5593 -0.0000 -0.8290
vn -0.8221 0.1288 0.5546
vn 0.1003 0.9927 -0.0677
vn 0.8242 -0.1073 -0.5561
vn -0.8238 0.1111 0.5558
vn 0.1234 0.9889 -0.0832
vn 0.8240 -0.1094 -0.5559
vn -0.6577 0.6087 0.4438
vn 0.7452 0.4380 -0.5028
vn 0.0954 0.9934 -0.0644
vn 0.1261 0.9884 -0.0851
vn -0.1136 -0.9906 0.0767
vn 0.6589 -0.6068 -0.4445
vn -0.7573 -0.4068 0.5109
vn -0.1000 -0.9927 0.0674
vt 0.000000 0.000000
vt 0.076923 0.000000
vt 0.153846 0.000000
vt 0.230769 0.000000
vt 0.307692 0.000000
vt 0.384615 0.000000
vt 0.461538 0.000000
vt 0.538462 0.000000
vt 0.615385 0.000000
vt 0.692308 0.000000
vt 0.769231 0.000000
vt 0.846154 0.000000
vt 0.923077 0.000000
vt 1.000000 0.000000
vt 0.000000 0.000000
vt 0.076923 0.000000
vt 0.153846 0.000000
vt 0.230769 0.000000
vt 0.307692 0.000000
vt 0.384615 0.000000
vt 0.461538 0.000000
vt 0.538462 0.000000
vt 0.615385 0.000000
vt 0.692308 0.000000
vt 0.769231 0.000000
vt 0.846154 0.000000
vt 0.923077 0.000000
vt 1.000000 0.000000
s 0
usemtl Material
f 7/7/1 9/9/1 8/8/1
f 7/7/1 10/10/1 9/9/1
f 14/14/1 2/2/1 1/1/1
f 14/14/1 3/3/1 2/2/1
f 4/4/1 6/6/1 5/5/1
f 14/14/1 4/4/1 3/3/1
f 14/14/1 6/6/1 4/4/1
f 14/14/1 7/7/1 6/6/1
f 14/14/1 12/12/1 7/7/1
f 12/12/1 10/10/1 7/7/1
f 14/14/1 13/13/1 12/12/1
f 11/11/1 10/10/1 12/12/1
f 21/21/2 22/22/2 23/23/2
f 21/21/2 23/23/2 24/24/2
f 28/28/2 15/15/2 16/16/2
f 28/28/2 16/16/2 17/17/2
f 18/18/2 19/19/2 20/20/2
f 28/28/2 17/17/2 18/18/2
f 28/28/2 18/18/2 20/20/2
f 28/28/2 20/20/2 21/21/2
f 28/28/2 21/21/2 26/26/2
f 26/26/2 21/21/2 24/24/2
f 28/28/2 26/26/2 27/27/2
f 25/25/2 26/26/2 24/24/2
f 7/7/3 8/8/3 22/22/3 21/21/3
f 8/8/4 9/9/4 23/23/4 22/22/4
f 9/9/5 10/10/5 24/24/5 23/23/5
f 14/14/6 1/1/6 15/15/6 28/28/6
f 1/1/7 2/2/7 16/16/7 15/15/7
f 2/2/8 3/3/8 17/17/8 16/16/8
f 4/4/9 5/5/9 19/19/9 18/18/9
f 5/5/10 6/6/10 20/20/10 19/19/10
f 3/3/11 4/4/11 18/18/11 17/17/11
f 6/6/12 7/7/12 21/21/12 20/20/12
f 13/13/13 14/14/13 28/28/13 27/27/13
f 12/12/14 13/13/14 27/27/14 26/26/14
f 11/11/15 12/12/15 26/26/15 25/25/15
f 10/10/16 11/11/16 25/25/16 24/24/16
