# Blender 3.3.1
# www.blender.org
mtllib Y.mtl
o Y
v -0.349738 -0.236570 1.121273
v -0.194255 -0.200207 1.003873
v -0.195086 -0.412766 0.929430
v -0.075356 -0.536506 0.785384
v 0.041048 -0.351745 0.753181
v 0.036891 -0.135933 0.832952
v 0.199025 -0.097818 0.710599
v 0.198193 -0.405131 0.602661
v 0.039385 -0.680968 0.638194
v 0.041048 -0.888304 0.563507
v -0.188435 -0.952139 0.733189
v -0.188435 -0.732949 0.810672
v -0.347243 -0.556707 1.006015
v -0.497867 -0.174065 0.944455
v -0.342384 -0.137701 0.827054
v -0.343215 -0.350260 0.752611
v -0.223485 -0.474001 0.608565
v -0.107081 -0.289240 0.576362
v -0.111238 -0.073428 0.656134
v 0.050896 -0.035313 0.533780
v 0.050064 -0.342626 0.425842
v -0.108744 -0.618462 0.461375
v -0.107081 -0.825798 0.386688
v -0.336564 -0.889634 0.556370
v -0.336564 -0.670444 0.633853
v -0.495372 -0.494202 0.829196
vn 0.6198 -0.2615 0.7399
vn -0.6198 0.2615 -0.7399
vn -0.7847 -0.2154 0.5812
vn 0.0192 0.9476 0.3189
vn -0.7845 -0.2282 0.5766
vn 0.0184 0.9474 0.3195
vn 0.7847 0.2021 -0.5859
vn 0.7847 0.2035 -0.5855
vn 0.5756 0.7923 -0.2022
vn -0.5811 0.4806 0.6567
vn 0.6082 -0.4356 -0.6635
vn -0.5906 -0.7763 0.2203
vn -0.7847 -0.2066 0.5844
vn 0.0097 -0.9402 -0.3405
vn 0.7847 0.2156 -0.5812
vt 0.000000 0.000000
vt 0.083333 0.000000
vt 0.166667 0.000000
vt 0.250000 0.000000
vt 0.333333 0.000000
vt 0.416667 0.000000
vt 0.500000 0.000000
vt 0.583333 0.000000
vt 0.666667 0.000000
vt 0.750000 0.000000
vt 0.833333 0.000000
vt 0.916667 0.000000
vt 1.000000 0.000000
vt 0.000000 0.000000
vt 0.083333 0.000000
vt 0.166667 0.000000
vt 0.250000 0.000000
vt 0.333333 0.000000
vt 0.416667 0.000000
vt 0.500000 0.000000
vt 0.583333 0.000000
vt 0.666667 0.000000
vt 0.750000 0.000000
vt 0.833333 0.000000
vt 0.916667 0.000000
vt 1.000000 0.000000
s 0
usemtl Material
f 13/13/1 2/2/1 1/1/1
f 5/5/1 7/7/1 6/6/1
f 13/13/1 3/3/1 2/2/1
f 5/5/1 8/8/1 7/7/1
f 13/13/1 4/4/1 3/3/1
f 4/4/1 8/8/1 5/5/1
f 4/4/1 9/9/1 8/8/1
f 12/12/1 4/4/1 13/13/1
f 12/12/1 9/9/1 4/4/1
f 11/11/1 9/9/1 12/12/1
f 11/11/1 10/10/1 9/9/1
f 26/26/2 14/14/2 15/15/2
f 18/18/2 19/19/2 20/20/2
f 26/26/2 15/15/2 16/16/2
f 18/18/2 20/20/2 21/21/2
f 26/26/2 16/16/2 17/17/2
f 17/17/2 18/18/2 21/21/2
f 17/17/2 21/21/2 22/22/2
f 25/25/2 26/26/2 17/17/2
f 25/25/2 17/17/2 22/22/2
f 24/24/2 25/25/2 22/22/2
f 24/24/2 22/22/2 23/23/2
f 13/13/3 1/1/3 14/14/3 26/26/3
f 1/1/4 2/2/4 15/15/4 14/14/4
f 5/5/5 6/6/5 19/19/5 18/18/5
f 6/6/6 7/7/6 20/20/6 19/19/6
f 2/2/7 3/3/7 16/16/7 15/15/7
f 7/7/8 8/8/8 21/21/8 20/20/8
f 3/3/9 4/4/9 17/17/9 16/16/9
f 4/4/10 5/5/10 18/18/10 17/17/10
f 8/8/11 9/9/11 22/22/11 21/21/11
f 12/12/12 13/13/12 26/26/12 25/25/12
f 11/11/13 12/12/13 25/25/13 24/24/13
f 10/10/14 11/11/14 24/24/14 23/23/14
f 9/9/15 10/10/15 23/23/15 22/22/15
